<svg height="512" viewBox="0 0 64 64" width="512" xmlns="http://www.w3.org/2000/svg"><g id="Twotone"><g id="Color_copy" data-name="Color copy"><g><g><path d="m36.98 26.238a2.974 2.974 0 0 1 -3.656.25 1.982 1.982 0 0 1 -2.444.169 1.993 1.993 0 0 1 -3.726.111 2.969 2.969 0 0 1 -3.451-.86 2.846 2.846 0 0 1 -2.173-.308 2.984 2.984 0 0 1 -5.352-.618c-.059 0-.117.018-.178.018a2 2 0 0 1 -1.846-1.232 3 3 0 0 1 -4.154-2.768c-.07 0-.136-.016-.2-.021a2.98 2.98 0 0 0 -.8 2.021 2 2 0 0 0 -1.657 3.12 1.985 1.985 0 0 0 -.3 3.625 2.988 2.988 0 1 0 4.257 4.163 2.938 2.938 0 0 0 3.23-1.308 2.907 2.907 0 0 0 2.97-.016 2.938 2.938 0 0 0 3.5-.363 2.957 2.957 0 0 0 4 0 2.96 2.96 0 0 0 4.3-.313 2.886 2.886 0 0 0 1.857-.14 2 2 0 1 0 3.153-2.268 1.984 1.984 0 0 0 .476-.617 2.99 2.99 0 0 0 2.194-2.645z" fill="#cff09e"/><path d="m32 61h-24l-2-28h28z" fill="#cff09e"/><path d="m27.8 61h-15.6l-1.2-28h18z" fill="#79bd9a"/><path d="m4 29h32v4h-32z" fill="#a8dba8"/><path d="m22.6 61h-5.2l-.4-28h6z" fill="#cff09e"/></g><g><path d="m44.671 39.055v-.055h14.162l.167-2h-20l2 24h16l.549-6.592a17.384 17.384 0 0 1 -12.878-15.353z" fill="#cff09e"/><path d="m41 33h16a2 2 0 0 1 2 2v2a0 0 0 0 1 0 0h-20a0 0 0 0 1 0 0v-2a2 2 0 0 1 2-2z" fill="#79bd9a"/><circle cx="49" cy="47" fill="#a8dba8" r="5"/><path d="m57 25a4.969 4.969 0 0 1 -3.861-1.859 2.99 2.99 0 0 0 -2.139 2.859v7h4v-6h6v-2z" fill="#cff09e"/></g><path d="m19.454 41.108a2 2 0 1 1 -3.464 2l-12.99 7.5 6 10.392 12.99-7.5a2 2 0 1 1 3.464-2l6.063-3.5-6-10.392z" fill="#a8dba8"/><g><path d="m51 61h-12l-3-2-3 2h-12v-14h30z" fill="#79bd9a"/><path d="m25 51h8v6h-8z" fill="#a8dba8"/><path d="m39 51h8v6h-8z" fill="#a8dba8"/><g fill="#cff09e"><path d="m39 51v6h8l-6-6z"/><path d="m25 51v6h8l-6-6z"/></g></g></g></g><g id="Stroke_Close_copy" data-name="Stroke Close copy"><g fill="#3b8686"><path d="m23 26a3 3 0 0 0 3-3 1 1 0 0 0 -2 0 1 1 0 0 1 -2 0 1 1 0 0 0 -2 0 3 3 0 0 0 3 3z"/><circle cx="30" cy="23" r="1"/><circle cx="18" cy="19" r="1"/><path d="m61 22h-7a4 4 0 0 0 -4 4v6h-9a3 3 0 0 0 -3 3v2c0 .015.008.028.009.044s-.009.026-.009.039l.747 8.917h-4.673l.857-12h1.069a1 1 0 0 0 1-1v-4a.987.987 0 0 0 -.062-.308 3.974 3.974 0 0 0 -.983-6.179 2.921 2.921 0 0 0 .045-.513 3.007 3.007 0 0 0 -2.005-2.831c0-.056.005-.112.005-.169a3.008 3.008 0 0 0 -3.126-3 4.007 4.007 0 0 0 -3.874-3 3.928 3.928 0 0 0 -1.528.309 2.989 2.989 0 0 0 -4.944 0 4.065 4.065 0 0 0 -4.028.569 3.995 3.995 0 0 0 -5.817 5.345 4.016 4.016 0 0 0 -2.59 2.917 3 3 0 0 0 -2.01 3.56 2.989 2.989 0 0 0 -1.083 2.3h-1a1 1 0 0 0 -1 1v4a1 1 0 0 0 1 1h1.069l.979 13.693-3.548 2.048a1 1 0 0 0 -.366 1.366l6 10.393a1 1 0 0 0 .607.466.99.99 0 0 0 .259.034.977.977 0 0 0 .121-.016c.028 0 .051.016.079.016h23.8a1.006 1.006 0 0 0 .555-.168l2.445-1.632 2.445 1.63a1.006 1.006 0 0 0 .555.17h18a1 1 0 0 0 1-.917l2-24c0-.013-.005-.026-.005-.039s.005-.029.005-.044v-2a3 3 0 0 0 -3-3h-1v-4h5a1 1 0 0 0 1-1v-4a1 1 0 0 0 -1-1zm-28.931 24h-.552l-1.926-3.337.367-8.663h2.968zm-13.481-4.393a1 1 0 0 1 -.365 1.367.766.766 0 0 1 -.077.025l-.131-9h3.97l-.067 4.53-2.964 1.711a1 1 0 0 0 -.366 1.366zm-6.119 2.379-.426-9.986h3.971l.119 8.133a.978.978 0 0 0 -.643.108zm11.517-9.986h3.971l-.231 5.434-1.343-2.327a1 1 0 0 0 -1.366-.366l-1.081.624zm-16.313-6.937a1 1 0 0 0 .5-1.5.99.99 0 0 1 -.173-.563 1 1 0 0 1 1-1 1 1 0 0 0 1-1 1.991 1.991 0 0 1 2.742-1.853 1 1 0 0 0 .82-.043 1.023 1.023 0 0 0 .524-.642 1.844 1.844 0 0 1 .062-.208 1 1 0 0 0 -.668-1.335 1.994 1.994 0 1 1 2.187-3.019 1.037 1.037 0 0 0 1.666 0 2.041 2.041 0 0 1 3.012-.365 1 1 0 0 0 1.671-.636.988.988 0 0 1 1.968 0 1 1 0 0 0 1.671.636 1.984 1.984 0 0 1 3.336 1.53c0 .011-.014.12-.015.131a1 1 0 0 0 1.512.955.991.991 0 0 1 1.363 1.365 1 1 0 0 0 1.013 1.5 1.01 1.01 0 0 1 1.136.984 1 1 0 0 1 -.162.541 1 1 0 0 0 .614 1.517 1.988 1.988 0 0 1 .07 3.86 1.1 1.1 0 0 0 -.217.082h-20.305a1 1 0 0 1 0-2 1 1 0 0 0 0-2 3 3 0 0 0 -3 3 2.966 2.966 0 0 0 .184 1h-4.184a1 1 0 0 1 .673-.937zm-2.673 2.937h30v2h-30zm2.074 4h2.968l.473 11.114-2.542 1.467zm-2.708 16.974 11.406-6.586a3 3 0 0 0 4.9-2.829l4.478-2.585 4.057 7.026h-8.207a1 1 0 0 0 -1 1v6.494l-10.634 6.14zm11.989 6.934.031 2.092h-3.654zm1.984-1.145 1.661-.963v4.2h-1.614zm31.661 3.237h-10.7l-2.748-1.832a1 1 0 0 0 -1.11 0l-2.742 1.832h-10.7v-12h28zm1-14h-5.858a3.992 3.992 0 1 1 6.858 3.64v-2.64a1 1 0 0 0 -1-1zm5.08 14h-4.08v-7.822a5.992 5.992 0 1 0 -8.91-6.178h-2.337l-.666-8h17.826zm1.92-25v1h-18v-1a1 1 0 0 1 1-1h16a1 1 0 0 1 1 1zm2-9h-5a1 1 0 0 0 -1 1v5h-2v-6a2 2 0 0 1 2-2h6z"/><path d="m16.259 47.572a1 1 0 0 0 -1.366-.366l-6.929 4a1 1 0 1 0 1 1.732l6.929-4a1 1 0 0 0 .366-1.366z"/><path d="m9.964 54.67a1 1 0 1 0 1 1.732l6.062-3.5a1 1 0 1 0 -1-1.732z"/><path d="m23.187 44.572a1 1 0 0 0 .5-.134l.866-.5a1 1 0 0 0 -1-1.732l-.866.5a1 1 0 0 0 .5 1.866z"/><path d="m25 58h8a1 1 0 0 0 1-1v-6a1 1 0 0 0 -1-1h-8a1 1 0 0 0 -1 1v6a1 1 0 0 0 1 1zm7-3.414-2.586-2.586h2.586zm-6-2.586h.586l4 4h-4.586z"/><path d="m39 58h8a1 1 0 0 0 1-1v-6a1 1 0 0 0 -1-1h-8a1 1 0 0 0 -1 1v6a1 1 0 0 0 1 1zm7-3.414-2.586-2.586h2.586zm-6-2.586h.586l4 4h-4.586z"/></g></g></g></svg>