<svg id="Icons" height="512" viewBox="0 0 512 512" width="512" xmlns="http://www.w3.org/2000/svg"><path d="m512 256c0 141.38-114.62 256-256 256-128.46 0-234.84-94.64-253.19-218a257.45 257.45 0 0 1 -2.81-38c0-141.38 114.62-256 256-256 136.45 0 248 106.76 255.58 241.3.28 4.86.42 9.77.42 14.7z" fill="#0989d8"/><path d="m512 256c0 141.38-114.62 256-256 256-128.46 0-234.84-94.64-253.19-218 1.51-.54 3-1.15 4.49-1.81 9.93-4.45 18.6-11.41 28.69-15.47a55.81 55.81 0 0 1 42.66.63c12.94 5.65 24.19 16.43 38.35 17.25 11.66.68 22.71-5.84 30.87-14.19s14.13-18.54 21.13-27.81c9.77-12.78 22.07-24.11 37-30s32.87-5.77 46.41 2.92c12.62 8.11 19.87 22.15 29.59 33.56 13.82 16.23 35.65 27.79 56.36 22.66 16.74-4.15 31.1-18.54 48.27-16.89s28.53 18.62 43.83 26.83c20.13 10.8 48 3.63 60.43-15.53 7.22-11.18 11.41-26.86 20.61-34.83.36 4.84.5 9.75.5 14.68z" fill="#29a3fb"/><path d="m109.94 209.61h292.12v34.61h-292.12z" fill="#fa4654"/><path d="m109.94 244.22h292.12v34.61h-292.12z" fill="#ff8b00"/><path d="m109.94 278.82h292.12v34.61h-292.12z" fill="#f9c744"/><path d="m109.94 313.43h292.12v34.61h-292.12z" fill="#15be79"/><path d="m109.94 348.04h292.12v34.61h-292.12z" fill="#0391e8"/><path d="m109.94 382.64h292.12a0 0 0 0 1 0 0v10.48a24.13 24.13 0 0 1 -24.13 24.13h-243.86a24.13 24.13 0 0 1 -24.13-24.13v-10.48a0 0 0 0 1 0 0z" fill="#aa0dd1"/><path d="m109.94 209.61h35.81v34.61h-35.81z" fill="#e52e44"/><path d="m109.94 244.22h35.81v34.61h-35.81z" fill="#ea792e"/><path d="m109.94 278.82h35.81v34.61h-35.81z" fill="#e2a427"/><path d="m109.94 313.43h35.81v34.61h-35.81z" fill="#14a36d"/><path d="m109.94 348.04h35.81v34.61h-35.81z" fill="#007cba"/><path d="m109.94 382.64h35.81a0 0 0 0 1 0 0v34.61a0 0 0 0 1 0 0h-11.68a24.13 24.13 0 0 1 -24.13-24.13v-10.48a0 0 0 0 1 0 0z" fill="#8d00af"/><path d="m383.85 278.82h-32.21a97.06 97.06 0 0 1 -1.13-15 93.55 93.55 0 0 1 2-19.63h30.49a93.52 93.52 0 0 1 2 19.63 98.32 98.32 0 0 1 -1.15 15z" fill="#ffac52"/><path d="m352.5 244.22c2.89-13.33 8.63-22.41 15.24-22.41s12.35 9.08 15.24 22.41z" fill="#fb626e"/><path d="m383.85 278.82c-2.48 15.82-8.75 27.06-16.11 27.06s-13.63-11.24-16.1-27.06z" fill="#fbd9a3"/><path d="m355.9 348c0-.11 0-.21 0-.32 0-16 5.31-28.9 11.85-28.9s11.85 12.94 11.85 28.9v.32z" fill="#33db92"/><path d="m379.58 348c-.07 15.81-5.34 28.58-11.84 28.58s-11.74-12.73-11.84-28.58z" fill="#22aef4"/><rect fill="#f4e6f4" height="28.82" rx="7.46" width="334.8" x="88.6" y="180.79"/><g fill="#2e3140"><path d="m88.6 188.25v13.9a7.46 7.46 0 0 0 7.46 7.46h24.56l33-28.82h-57.56a7.46 7.46 0 0 0 -7.46 7.46z"/><path d="m189.53 180.79-33.03 28.82h65.04l33.03-28.82z"/><path d="m290.46 180.79-33.03 28.82h65.04l33.03-28.82z"/><path d="m391.38 180.79-33 28.82h57.58a7.46 7.46 0 0 0 7.46-7.46v-13.9a7.46 7.46 0 0 0 -7.46-7.46z"/></g><rect fill="#f4e6f4" height="28.82" rx="7.46" transform="matrix(.985 .174 -.174 .985 28.27 -43.72)" width="334.8" x="96.6" y="125.31"/><path d="m100.35 103.8-2.41 13.69a7.45 7.45 0 0 0 6 8.64l24.18 4.26 37.53-22.64-56.65-10a7.47 7.47 0 0 0 -8.65 6.05z" fill="#2e3140"/><path d="m201.04 113.98-37.53 22.65 64.05 11.29 37.53-22.64z" fill="#2e3140"/><path d="m300.44 131.51-37.53 22.64 64.05 11.3 37.53-22.65z" fill="#2e3140"/><path d="m399.83 149-37.53 22.68 56.71 10a7.47 7.47 0 0 0 8.64-6.05l2.41-13.69a7.45 7.45 0 0 0 -6.06-8.64z" fill="#2e3140"/><circle cx="400.17" cy="179.95" fill="#f4e6f4" r="15.19"/></svg>